<svg width="18" height="15" viewBox="0 0 18 15" fill="none" xmlns="http://www.w3.org/2000/svg">
<path d="M17.3291 0.0335885L0.312041 6.31509C-0.104961 6.46817 -0.104961 7.03673 0.317753 7.1898L4.46492 8.67134L6.07009 13.6135C6.17291 13.9305 6.57849 14.0453 6.84697 13.8376L9.16047 12.0335C9.40039 11.8422 9.74884 11.8367 10.0002 12.0116L14.1702 14.9091C14.4558 15.1114 14.8614 14.9583 14.9357 14.6248L17.9918 0.569348C18.0603 0.197596 17.689 -0.103085 17.3291 0.0335885ZM14.0788 3.31922L7.39535 9.26724C7.16115 9.47498 7.00691 9.75926 6.96693 10.0599L6.73843 11.6782C6.70987 11.8914 6.38998 11.9132 6.32714 11.7055L5.45315 8.75881C5.35033 8.42533 5.49885 8.06451 5.80732 7.87864L13.9131 3.10054C14.056 3.01853 14.2045 3.20988 14.0788 3.31922Z" fill="white"/>
</svg>
