<svg width="46.583984" height="50.327148" viewBox="0 0 46.584 50.3271" fill="none" xmlns="http://www.w3.org/2000/svg" xmlns:xlink="http://www.w3.org/1999/xlink">
	<desc>
			Created with Pixso.
	</desc>
	<defs/>
	<path id="Vector" d="M18.41 10.07C18.27 9.26 18.17 8.45 18.1 7.65C18 6.44 18.06 5.23 18.03 4.02C18.01 3.51 17.95 2.18 17.97 1.99C18.2 0.32 19.55 0.06 19.94 0.01C20.13 -0.01 22.09 -0.23 22.52 1.94C23.03 4.6 23.2 7.28 23.02 9.9C23.45 12.12 24.18 14.34 25.15 16.35C29 24.35 36.33 25.12 44.27 25.05C45.5 25.03 46.51 25.99 46.58 27.21C46.64 28.43 45.73 29.49 44.51 29.6C40.07 30.03 32.19 33.59 29.47 37.3C28.9 38.07 28.57 39.95 28.13 41.78C27.51 44.33 26.79 46.85 25.97 47.91C25.85 48.08 24.36 49.76 23.92 50C22.85 50.59 22 50.25 21.51 49.94C21.03 49.63 20.48 49.02 20.26 48C20.03 46.94 20.22 44.77 20.19 44.3C20.06 42.61 19.72 39.3 19.03 36.45C18.66 34.91 18.26 33.5 17.6 32.79C15.18 30.19 11.3 30.58 8.03 31C7.65 31.05 7.28 31.1 6.9 31.15C5.57 31.54 4.16 31.84 2.66 32.01C0.41 32.27 0.04 30.2 0.02 30.06C-0.02 29.76 -0.18 28.21 1.52 27.59C1.71 27.52 3.07 27.22 3.6 27.1C4.33 26.94 5.08 26.81 5.82 26.69C13.52 24.3 17.7 17.58 18.41 10.07ZM21.05 18.37C23.96 24.38 28.37 27.29 33.59 28.6L33.59 28.6C30.33 30.31 27.36 32.45 25.79 34.59C25.19 35.41 24.64 37.04 24.15 38.88C23.88 37.17 23.52 35.35 23.04 33.8C22.5 32.03 21.76 30.56 20.95 29.68C19.37 27.99 17.39 27.05 15.27 26.58C17.81 24.33 19.74 21.51 21.05 18.37Z" fill="#306FD5" fill-opacity="1.000000" fill-rule="evenodd"/>
</svg>
