<svg width="53.349609" height="23.666016" viewBox="0 0 53.3496 23.666" fill="none" xmlns="http://www.w3.org/2000/svg" xmlns:xlink="http://www.w3.org/1999/xlink">
	<desc>
			Created with Pixso.
	</desc>
	<defs/>
	<path id="10+" d="M9.53 8.84Q9.15 10.28 9.15 11.82Q9.15 13.46 9.57 14.96Q9.91 16.19 10.49 17.3Q10.62 17.55 10.76 17.79Q11.14 18.44 11.6 19.04Q12.07 19.64 12.62 20.19Q13.24 20.81 13.94 21.33Q14.46 21.72 15.01 22.05Q15.09 22.09 15.16 22.13Q16.41 22.84 17.84 23.24Q17.91 23.26 17.99 23.28Q19.43 23.66 20.97 23.66Q22.52 23.66 23.96 23.28Q24.03 23.26 24.11 23.24Q25.45 22.87 26.64 22.22Q26.79 22.13 26.94 22.05Q27.59 21.66 28.19 21.21Q28.8 20.74 29.34 20.19Q29.89 19.64 30.36 19.04Q30.82 18.44 31.2 17.79Q31.34 17.55 31.47 17.3Q32.05 16.19 32.39 14.96Q32.81 13.46 32.81 11.82Q32.81 10.28 32.43 8.84Q32.41 8.76 32.39 8.68Q31.99 7.26 31.28 6.01Q31.24 5.93 31.2 5.86Q30.87 5.3 30.49 4.79Q29.97 4.09 29.34 3.46Q28.8 2.92 28.19 2.45Q27.59 1.99 26.94 1.61Q26.79 1.52 26.64 1.44Q25.45 0.79 24.11 0.42Q24.03 0.4 23.96 0.38Q22.52 0 20.97 0Q19.43 0 17.99 0.38Q17.91 0.4 17.84 0.42Q16.41 0.82 15.16 1.53Q15.09 1.57 15.01 1.61Q14.46 1.94 13.94 2.32Q13.24 2.84 12.62 3.46Q11.99 4.09 11.47 4.79Q11.09 5.3 10.76 5.86Q10.72 5.93 10.68 6.01Q9.97 7.26 9.57 8.68Q9.55 8.76 9.53 8.84ZM1.37 22.28Q1.29 22.77 1.19 23.1L1.19 23.17L4.88 23.17L4.88 23.1Q4.79 22.77 4.7 22.28Q4.61 21.78 4.55 21.05Q4.48 20.32 4.45 19.31Q4.42 18.3 4.42 16.94L4.42 6.58Q4.42 5.23 4.45 4.22Q4.48 3.21 4.55 2.47Q4.61 1.73 4.7 1.24Q4.79 0.74 4.88 0.41L4.88 0.35L0 2.18L0 2.24Q0.19 2.4 0.47 2.59Q0.74 2.78 1.01 3.21Q1.27 3.64 1.46 4.44Q1.65 5.23 1.65 6.58L1.65 16.94Q1.65 18.3 1.62 19.31Q1.59 20.32 1.52 21.05Q1.46 21.78 1.37 22.28ZM11.96 14.4Q11.63 13.19 11.63 11.88Q11.63 10.35 12.07 8.96Q12.2 8.58 12.35 8.2Q12.89 6.93 13.71 5.9Q14.01 5.52 14.34 5.18Q14.73 4.78 15.16 4.43Q16.13 3.65 17.31 3.12Q17.68 2.96 18.06 2.83Q19.44 2.37 20.97 2.37Q22.51 2.37 23.88 2.83Q24.26 2.96 24.63 3.12Q25.81 3.65 26.79 4.43Q27.21 4.78 27.6 5.18Q27.92 5.5 28.2 5.85Q29.05 6.9 29.6 8.2Q29.77 8.6 29.9 9.02Q30.33 10.38 30.33 11.88Q30.33 13.19 30 14.4Q29.67 15.56 29.1 16.59Q29.08 16.63 29.06 16.67Q28.73 17.24 28.33 17.77Q27.99 18.2 27.61 18.6Q27.16 19.06 26.66 19.45Q26.22 19.8 25.72 20.1Q25.65 20.14 25.58 20.18Q24.6 20.74 23.48 21.06Q22.28 21.4 20.97 21.4Q19.67 21.4 18.47 21.06Q17.46 20.77 16.56 20.28Q16.4 20.19 16.24 20.1Q15.82 19.84 15.42 19.55Q14.85 19.12 14.34 18.6Q13.85 18.1 13.45 17.53Q13.15 17.12 12.9 16.67Q12.3 15.61 11.96 14.4ZM45.53 20.62L45.53 12.81L53.34 12.81L53.34 11.17L45.53 11.17L45.53 3.35L43.89 3.35L43.89 11.17L36.08 11.17L36.08 12.81L43.89 12.81L43.89 20.62L45.53 20.62Z" fill="#222222" fill-opacity="1.000000" fill-rule="evenodd"/>
</svg>
