<svg width="13.240234" height="13.581055" viewBox="0 0 13.2402 13.5811" fill="none" xmlns="http://www.w3.org/2000/svg" xmlns:xlink="http://www.w3.org/1999/xlink">
	<desc>
			Created with Pixso.
	</desc>
	<defs/>
	<path id="Star 1" d="M6.62 0L6.04 4.26L3.67 0.67L5 4.76L1.31 2.55L4.28 5.66L0 5.27L4.02 6.79L0 8.3L4.28 7.91L1.31 11.02L5 8.81L3.67 12.9L6.04 9.31L6.62 13.58L7.19 9.31L9.56 12.9L8.23 8.81L11.92 11.02L8.95 7.91L13.24 8.3L9.21 6.79L13.24 5.27L8.95 5.66L11.92 2.55L8.23 4.76L9.56 0.67L7.19 4.26L6.62 0Z" fill="#306FD5" fill-opacity="1.000000" fill-rule="evenodd"/>
</svg>
