<svg width="61" height="53" viewBox="0 0 61 53" fill="none" xmlns="http://www.w3.org/2000/svg">
<g clip-path="url(#clip0_36_368)">
<path d="M1.00003 0C20.8 0 40.6 0 61 0C61 14.52 61 29.04 61 44C53.74 44 46.48 44 39 44C39 46.97 39 49.94 39 53C33.72 53 28.44 53 23 53C23 50.03 23 47.06 23 44C22.3691 44.0052 21.7382 44.0105 21.0882 44.0159C18.2463 44.0366 15.4044 44.0496 12.5625 44.0625C11.0727 44.0751 11.0727 44.0751 9.55276 44.0879C8.60852 44.0911 7.66429 44.0943 6.69143 44.0977C5.81689 44.1029 4.94234 44.1081 4.04129 44.1135C2.00003 44 2.00003 44 1.00003 43C0.907339 41.6491 0.882555 40.2933 0.886503 38.9392C0.886624 38.0663 0.886745 37.1934 0.88687 36.2941C0.891986 35.3707 0.897102 34.4474 0.902373 33.4961C0.90338 32.6518 0.904387 31.8075 0.905424 30.9376C0.910673 27.7709 0.924634 24.6042 0.937529 21.4375C0.958154 14.3631 0.978779 7.28875 1.00003 0Z" fill="#262524"/>
<path d="M1.00003 0C20.8 0 40.6 0 61 0C61 14.52 61 29.04 61 44C53.74 44 46.48 44 39 44C39 46.97 39 49.94 39 53C33.72 53 28.44 53 23 53C23 50.03 23 47.06 23 44C22.3691 44.0052 21.7382 44.0105 21.0882 44.0159C18.2463 44.0366 15.4044 44.0496 12.5625 44.0625C11.0727 44.0751 11.0727 44.0751 9.55276 44.0879C8.60852 44.0911 7.66429 44.0943 6.69143 44.0977C5.81689 44.1029 4.94234 44.1081 4.04129 44.1135C2.00003 44 2.00003 44 1.00003 43C0.907339 41.6491 0.882555 40.2933 0.886503 38.9392C0.886624 38.0663 0.886745 37.1934 0.88687 36.2941C0.891986 35.3707 0.897102 34.4474 0.902373 33.4961C0.90338 32.6518 0.904387 31.8075 0.905424 30.9376C0.910673 27.7709 0.924634 24.6042 0.937529 21.4375C0.958154 14.3631 0.978779 7.28875 1.00003 0ZM3.00003 2C3.00003 12.89 3.00003 23.78 3.00003 35C21.48 35 39.96 35 59 35C59 24.11 59 13.22 59 2C40.52 2 22.04 2 3.00003 2Z" fill="#BBBCBF"/>
<path d="M36 2C43.59 2 51.18 2 59 2C59 12.89 59 23.78 59 35C40.52 35 22.04 35 3 35C3 34.67 3 34.34 3 34C18.18 34 33.36 34 49 34C44.2215 21.9868 44.2215 21.9868 39.125 10.125C36 3.12658 36 3.12658 36 2Z" fill="#464545"/>
<path d="M1 0C20.8 0 40.6 0 61 0C61 12.21 61 24.42 61 37C31.3 36.505 31.3 36.505 1 36C1 24.12 1 12.24 1 0ZM3 2C3 12.89 3 23.78 3 35C21.48 35 39.96 35 59 35C59 24.11 59 13.22 59 2C40.52 2 22.04 2 3 2Z" fill="#CDCDCE"/>
<path d="M23 43.0001C25.4792 42.9733 27.9582 42.9533 30.4375 42.9376C31.1446 42.9292 31.8516 42.9208 32.5801 42.9122C34.3869 42.9036 36.1939 42.9479 38 43.0001C39 44.0001 39 44.0001 39.0977 46.0665C39.0651 48.3777 39.0326 50.6889 39 53.0001C33.72 53.0001 28.44 53.0001 23 53.0001C23 49.7001 23 46.4001 23 43.0001Z" fill="#A4A5A8"/>
<path d="M24 48C28.62 48 33.24 48 38 48C38.33 49.65 38.66 51.3 39 53C33.72 53 28.44 53 23 53C23.33 51.35 23.66 49.7 24 48Z" fill="#B5B6B7"/>
</g>
<defs>
<clipPath id="clip0_36_368">
<rect width="61" height="53" fill="white"/>
</clipPath>
</defs>
</svg>
